<svg xmlns="http://www.w3.org/2000/svg" viewBox="101 203.7 535 159" width="230" height="75"><style>.logo-st0{fill:#115290}.logo-st1{fill:#fff}.logo-st2{fill:#c1001f}.logo-st3{fill:#f5d300}</style><path class="logo-st0" d="M232.9 230.4c-1.6 0-3-.3-4.3-.8s-2.4-1.2-3.3-2.2c-.9-.9-1.6-2-2.1-3.3-.5-1.2-.7-2.6-.7-4.1v-.1c0-1.4.3-2.7.8-4s1.2-2.4 2.1-3.3c.9-.9 2-1.7 3.3-2.2 1.3-.6 2.7-.8 4.2-.8.9 0 1.7.1 2.4.2s1.4.3 2 .5 1.2.5 1.7.8 1.1.7 1.6 1.2l-2.2 2.7-1.2-.9c-.4-.3-.8-.5-1.3-.7-.4-.2-.9-.3-1.4-.4-.5-.1-1.1-.2-1.7-.2-.9 0-1.8.2-2.6.6-.8.4-1.5.9-2.1 1.5s-1 1.4-1.4 2.2c-.3.9-.5 1.8-.5 2.7v.1c0 1 .2 2 .5 2.9s.8 1.6 1.4 2.3c.6.6 1.3 1.1 2.1 1.5.8.4 1.8.5 2.8.5.9 0 1.8-.1 2.7-.4s1.5-.6 2.2-1.1v-3.8h-5.1v-3.1h8.5v8.4c-.5.4-1 .8-1.6 1.2s-1.2.7-1.9 1c-.7.3-1.4.5-2.2.7-1 .3-1.9.4-2.7.4zm32.7 0c-1.5 0-3-.3-4.2-.8-1.3-.5-2.4-1.3-3.3-2.2s-1.6-2-2.1-3.3c-.5-1.2-.8-2.6-.8-4v-.1c0-1.4.3-2.7.8-4 .5-1.2 1.2-2.3 2.2-3.3.9-.9 2-1.7 3.3-2.2 1.3-.6 2.7-.8 4.2-.8s3 .3 4.2.8c1.3.5 2.4 1.3 3.3 2.2s1.6 2 2.1 3.3c.5 1.2.8 2.6.8 4v.1c0 1.4-.3 2.7-.8 4-.5 1.2-1.2 2.3-2.2 3.3-.9.9-2 1.7-3.3 2.2s-2.7.8-4.2.8zm0-3.3c1 0 1.9-.2 2.7-.6.8-.4 1.5-.9 2.1-1.5s1-1.4 1.4-2.2c.3-.9.5-1.8.5-2.7v-.1c0-1-.2-1.9-.5-2.8-.3-.9-.8-1.6-1.4-2.3-.6-.6-1.3-1.1-2.1-1.5-.8-.4-1.7-.6-2.7-.6s-1.9.2-2.7.6c-.8.4-1.5.9-2.1 1.5s-1 1.4-1.4 2.2c-.3.9-.5 1.8-.5 2.7v.1c0 1 .2 1.9.5 2.8.3.9.8 1.6 1.4 2.3.6.6 1.3 1.1 2.1 1.5.8.5 1.8.6 2.7.6zm23.3-17.1h3.9l6 15.4 6-15.4h3.8l-8.3 20.1h-3.1l-8.3-20.1zm33.4 0h14.8v3.2h-11.3v5.1h10v3.2h-10v5.3h11.5v3.2h-14.9v-20h-.1zm29.4 0h8.9c1.3 0 2.4.2 3.3.5 1 .4 1.8.8 2.4 1.5.5.6.9 1.2 1.2 1.9.3.7.4 1.5.4 2.4v.1c0 .8-.1 1.6-.4 2.2-.2.7-.6 1.2-1 1.7s-.9.9-1.5 1.3-1.2.6-1.9.8l5.4 7.6h-4.1l-4.9-7H355v7h-3.5v-20h.2zm8.7 10c1.3 0 2.3-.3 3-.9s1.1-1.4 1.1-2.5v-.1c0-1.1-.4-1.9-1.1-2.5s-1.7-.8-3.1-.8h-5.1v6.7h5.2v.1zm22.2-10h3.2l10.7 13.8V210h3.5v20h-2.9l-11-14.2V230h-3.5v-20zm42.4 20.4c-1.5 0-3-.3-4.2-.8-1.3-.5-2.4-1.3-3.3-2.2s-1.6-2-2.1-3.3c-.5-1.2-.8-2.6-.8-4v-.1c0-1.4.3-2.7.8-4 .5-1.2 1.2-2.3 2.2-3.3.9-.9 2-1.7 3.3-2.2 1.3-.6 2.7-.8 4.2-.8s3 .3 4.2.8c1.3.5 2.4 1.3 3.3 2.2s1.6 2 2.1 3.3c.5 1.2.8 2.6.8 4v.1c0 1.4-.3 2.7-.8 4-.5 1.2-1.2 2.3-2.2 3.3-.9.9-2 1.7-3.3 2.2s-2.6.8-4.2.8zm.1-3.3c1 0 1.9-.2 2.7-.6.8-.4 1.5-.9 2.1-1.5s1-1.4 1.4-2.2c.3-.9.5-1.8.5-2.7v-.1c0-1-.2-1.9-.5-2.8-.3-.9-.8-1.6-1.4-2.3-.6-.6-1.3-1.1-2.1-1.5-.8-.4-1.7-.6-2.7-.6s-1.9.2-2.7.6c-.8.4-1.5.9-2.1 1.5s-1 1.4-1.4 2.2c-.3.9-.5 1.8-.5 2.7v.1c0 1 .2 1.9.5 2.8.3.9.8 1.6 1.4 2.3.6.6 1.3 1.1 2.1 1.5.8.5 1.7.6 2.7.6zm43.8-17.1h7.5c1.6 0 3 .3 4.3.8s2.4 1.2 3.4 2.1c.9.9 1.7 1.9 2.2 3.2.5 1.2.8 2.5.8 3.9v.1c0 1.4-.3 2.7-.8 3.9s-1.2 2.3-2.2 3.2c-.9.9-2.1 1.6-3.4 2.1-1.3.5-2.7.8-4.3.8h-7.5V210zm7.4 16.9c1 0 2-.2 2.9-.5s1.6-.8 2.2-1.4c.6-.6 1.1-1.3 1.4-2.2.3-.8.5-1.7.5-2.7v-.1c0-1-.2-1.9-.5-2.7s-.8-1.6-1.4-2.2c-.6-.6-1.3-1.1-2.2-1.4-.9-.3-1.8-.5-2.9-.5h-3.9v13.7h3.9zm25.2-16.9h14.8v3.2H505v5.1h10v3.2h-10v5.3h11.5v3.2h-14.9l-.1-20zm-394.3 70.8v-.2c0-18.5 14-33 32.8-33 12.7 0 20.9 5.4 26.4 13.2l-13 10.2c-3.6-4.5-7.7-7.4-13.6-7.4-8.7 0-14.9 7.5-14.9 16.8v.2c0 9.5 6.1 17 14.9 17 6.5 0 10.3-3.1 14.1-7.7l13 9.4c-5.9 8.3-13.8 14.3-27.6 14.3-17.7 0-32.1-13.8-32.1-32.8zM223 248.9h32c7.8 0 13.3 2 17 5.7 2.5 2.5 4 5.9 4 10.2v.2c0 7.3-4.1 11.7-9.6 14.1 7.6 2.5 12.4 6.9 12.4 15.5v.2c0 10.9-8.7 17.5-23.6 17.5H223v-63.4zm27.7 25.3c5.3 0 8.2-1.8 8.2-5.5v-.2c0-3.4-2.7-5.4-7.8-5.4h-11.2v11.2h10.8v-.1zm2.5 24c5.3 0 8.3-2.1 8.3-5.8v-.2c0-3.4-2.7-5.7-8.5-5.7h-13.2v11.7h13.4z"/><path class="logo-st0" d="M277.4 280.8v-.2c0-18.2 14.4-33 33.6-33s33.5 14.6 33.5 32.8v.2c0 18.2-14.4 33-33.6 33s-33.5-14.6-33.5-32.8zm49.5 0v-.2c0-9.2-6.5-17.1-16-17.1-9.4 0-15.8 7.8-15.8 17v.2c0 9.2 6.5 17.1 15.9 17.1 9.6 0 15.9-7.8 15.9-17zm-129.3-32.4H181l-26.5 63.9h17.9c2-4.9 6.9-17.5 10.9-28h11.9l8.4 23.1 2 4.9h18.5l-26.5-63.9z"/><path class="logo-st0" d="M197.6 248.4H181l-26.5 63.9h17.9c2-4.9 6.9-17.5 10.9-28h11.9l8.4 23.1 2 4.9h18.5l-26.5-63.9z"/><path class="logo-st0" d="M171.1 286.8l-8.4 17.3c6.5-1.2 15-1.8 25.7-1.1 10.5.7 18.7-2.1 24.8-6.2l-4.7-13.4c-4.6.5-10.1.7-16.7.3-7.9-.6-14.8.7-20.7 3.1z"/><path class="logo-st1" d="M134.7 311.4s15.5-34.1 54.8-33.7c39 .4 45.8-14.3 45.8-14.3s-9.1 36.9-48.7 36.5c-37.6-.4-51.9 11.5-51.9 11.5z"/><path class="logo-st2" d="M130.8 315.5c2.1-3.4 4.4-6.6 7.1-9.6 2.7-3 5.7-5.8 8.9-8.3s6.6-4.6 10.2-6.5c1.2-.6 2.5-1.2 3.8-1.8.9-.4 1.8-.7 2.7-1.1 4-1.5 8.2-2.5 12.4-2.9 4.5-.5 9-.5 13.5-.6 4.2-.1 8.4-.6 12.6-1.3 4.4-.7 8.7-1.8 12.8-3.5.2-.1.3-.1.5-.2 3.7-1.6 7.1-3.6 10.3-6 3.2-2.4 6.1-5.2 8.8-8.1.3-.3.5-.6.8-.9-.3.3-.5.9-.6 1.3-1.9 3.7-4.3 7.2-7.1 10.3-2.8 3.1-5.9 5.8-9.4 7.9-3.4 2.1-7.1 3.7-10.9 4.9-4.2 1.3-8.6 2.3-13 2.8-.7.1-1.4.1-2.2.2-4.5.3-9 .4-13.4.7-4.3.3-8.5.9-12.7 2-2.1.6-4.1 1.5-6.2 2.2-2 .6-3.9 1.5-5.7 2.4-3.8 1.8-7.5 3.9-11 6.4-1.1.8-2.4 1.5-3.4 2.4-3 2.3-6 4.7-8.8 7.3z"/><path class="logo-st3" d="M189.2 256.8l-1.8 5.9h-6l4.8 3.5-1.7 5.8 4.9-3.5 4.8 3.5-1.9-5.8 4.8-3.5h-5.9z"/><path class="logo-st0" d="M414.8 249H464v14.9h-32.4v9.6H461v13.9h-29.4v10h32.9v14.9h-49.7V249zm51.3 0H495c9.4 0 15.8 2.5 19.9 6.9 3.6 3.6 5.4 8.5 5.4 14.8v.2c0 9.7-5 16.1-12.6 19.5l14.6 22.1h-19.6l-12.3-19.2h-7.5v19.2h-17V249h.2zm28.2 30.4c5.8 0 9.1-2.9 9.1-7.5v-.2c0-5-3.5-7.5-9.2-7.5h-11.1v15.2h11.2z"/><path class="logo-st0" d="M522 249h23.6c21.9 0 34.5 13 34.5 31.3v.2c0 18.3-12.9 31.9-34.9 31.9H522V249zm23.9 47.8c10.1 0 16.9-5.8 16.9-16v-.2c0-10.1-6.7-16-16.9-16H539v32.2h6.9zm36-47.8h49.2v14.9h-32.4v9.6H628v13.9h-29.4v10h32.9v14.9h-49.7V249h.1zm-231.5 0h19l13.9 40.1 13.9-40.1h18.6L391 312.8h-15.7L350.4 249zm-147.2 92.8h2.6l7.1 16.4h-3l-1.6-3.9h-7.7l-1.7 3.9H196l7.2-16.4zm4.1 9.9l-2.8-6.5-2.8 6.5h5.6zm19.5-7.1h-5.2V342h13.2v2.6h-5.2v13.6h-2.9v-13.6h.1zm11-2.7h7.2c1 0 1.9.1 2.7.4.8.3 1.4.7 2 1.2.4.4.8 1 1 1.6s.3 1.2.3 1.9-.1 1.3-.3 1.8c-.2.5-.5 1-.8 1.4s-.7.8-1.2 1c-.5.3-1 .5-1.6.7l4.4 6.1h-3.4l-4-5.7h-3.5v5.7h-2.8v-16.1zm7 8.1c1 0 1.8-.2 2.4-.7s.9-1.2.9-2c0-.9-.3-1.6-.9-2s-1.4-.7-2.5-.7h-4.2v5.5l4.3-.1zm15.5-8.2h2.6l7.1 16.4h-3l-1.6-3.9h-7.7l-1.7 3.9h-2.9l7.2-16.4zm4.1 9.9l-2.8-6.5-2.8 6.5h5.6zm8.5-9.8h7.3c1.9 0 3.3.5 4.2 1.4.7.7 1.1 1.6 1.1 2.7 0 .5-.1.9-.2 1.3s-.3.7-.5 1-.5.5-.7.8l-.9.6c.5.2.9.4 1.3.6s.7.5 1 .8.5.7.7 1.1.2.9.2 1.5c0 .7-.1 1.4-.4 1.9-.3.6-.7 1-1.2 1.4s-1.2.7-1.9.8c-.7.2-1.6.3-2.5.3h-7.5v-16.2zm6.7 6.9c.9 0 1.7-.2 2.2-.5.6-.4.8-.9.8-1.7 0-.6-.2-1.2-.7-1.5s-1.2-.5-2.1-.5h-4.1v4.3l3.9-.1zm.9 6.8c1 0 1.7-.2 2.3-.6.6-.4.8-.9.8-1.7 0-.7-.3-1.2-.8-1.6s-1.4-.6-2.5-.6h-4.5v4.5h4.7zm14.9-13.8h2.6l7.1 16.4h-3l-1.6-3.9h-7.7l-1.7 3.9h-2.9l7.2-16.4zm4.1 9.9l-2.8-6.5-2.8 6.5h5.6zm8.5-9.8h2.8v13.7h8.5v2.6H308v-16.3zm14.4 0h2.8v6.8h7.8v-6.8h2.8v16.2H333v-6.8h-7.8v6.8h-2.8v-16.2zm23.3-.1h2.6l7.1 16.4h-3l-1.6-3.9h-7.7l-1.7 3.9h-2.9l7.2-16.4zm4.1 9.9l-2.8-6.5-2.8 6.5h5.6zm8.5-9.8h7.2c1 0 1.9.1 2.7.4.8.3 1.4.7 2 1.2.4.4.8 1 1 1.6s.3 1.2.3 1.9-.1 1.3-.3 1.8-.5 1-.8 1.4-.7.8-1.2 1-1 .5-1.6.7l4.4 6.1h-3.4l-4-5.7h-3.5v5.7h-2.8v-16.1zm7 8.1c1 0 1.8-.2 2.4-.7s.9-1.2.9-2c0-.9-.3-1.6-.9-2-.6-.5-1.4-.7-2.5-.7H361v5.5l4.3-.1zm16.7-8.1h6.4c.9 0 1.8.1 2.6.4s1.4.6 1.9 1.1.9 1.1 1.2 1.7c.3.7.4 1.4.4 2.2 0 .9-.2 1.7-.5 2.4s-.8 1.3-1.4 1.7c-.6.5-1.3.8-2.1 1.1-.8.2-1.6.4-2.5.4h-3.2v5.2H382v-16.2zm6.2 8.5c1.1 0 1.9-.3 2.6-.8.6-.5.9-1.2.9-2.1 0-1-.3-1.7-1-2.2-.6-.5-1.5-.7-2.6-.7h-3.3v5.9l3.4-.1zm15.1-8.6h2.6l7.1 16.4h-3l-1.6-3.9h-7.7l-1.7 3.9h-2.9l7.2-16.4zm4.1 9.9l-2.8-6.5-2.8 6.5h5.6zm8.5-9.8h7.2c1 0 1.9.1 2.7.4.8.3 1.4.7 2 1.2.4.4.8 1 1 1.6s.3 1.2.3 1.9-.1 1.3-.3 1.8-.5 1-.8 1.4-.7.8-1.2 1-1 .5-1.6.7l4.4 6.1h-3.4l-4-5.7h-3.5v5.7h-2.8v-16.1zm7 8.1c1 0 1.8-.2 2.4-.7s.9-1.2.9-2c0-.9-.3-1.6-.9-2-.6-.5-1.4-.7-2.5-.7h-4.2v5.5l4.3-.1zm15.5-8.2h2.6l7.1 16.4h-3l-1.6-3.9h-7.7l-1.7 3.9h-2.9l7.2-16.4zm4.1 9.9l-2.8-6.5-2.8 6.5h5.6zm19.4-7.1h-5.2V342H470v2.6h-5.2v13.6h-2.9v-13.6zm18.8 13.8c-1.3 0-2.4-.2-3.4-.7s-1.9-1-2.7-1.8-1.3-1.6-1.7-2.7c-.4-1-.6-2.1-.6-3.2s.2-2.2.6-3.2 1-1.9 1.8-2.7c.8-.8 1.7-1.4 2.7-1.8s2.2-.7 3.4-.7c1.3 0 2.4.2 3.4.7 1 .4 1.9 1 2.7 1.8s1.3 1.6 1.7 2.7c.4 1 .6 2.1.6 3.2s-.2 2.2-.6 3.2c-.4 1-1 1.9-1.8 2.7s-1.7 1.4-2.7 1.8-2.1.7-3.4.7zm.1-2.6c.8 0 1.5-.2 2.2-.5s1.2-.7 1.7-1.2.9-1.1 1.1-1.8.4-1.4.4-2.2c0-.8-.1-1.5-.4-2.2-.3-.7-.6-1.3-1.1-1.8s-1.1-.9-1.7-1.2-1.4-.5-2.2-.5-1.5.2-2.2.5-1.2.7-1.7 1.2-.9 1.1-1.1 1.8c-.3.7-.4 1.4-.4 2.2 0 .8.1 1.5.4 2.2.3.7.6 1.3 1.1 1.8s1.1.9 1.7 1.2c.6.4 1.4.5 2.2.5zm11.9-13.9h6.1c1.3 0 2.4.2 3.5.6s2 1 2.7 1.7c.8.7 1.4 1.6 1.8 2.6s.6 2 .6 3.2c0 1.1-.2 2.2-.6 3.2-.4 1-1 1.8-1.8 2.6-.8.7-1.7 1.3-2.7 1.7-1.1.4-2.2.6-3.5.6h-6.1v-16.2zm6 13.7c.9 0 1.6-.1 2.3-.4s1.3-.7 1.8-1.1.9-1.1 1.1-1.7.4-1.4.4-2.2c0-.8-.1-1.5-.4-2.2-.3-.7-.6-1.3-1.1-1.8s-1.1-.9-1.8-1.2c-.7-.3-1.5-.4-2.3-.4h-3.2v11.1l3.2-.1zm19.9 2.8c-1.3 0-2.4-.2-3.4-.7s-1.9-1-2.7-1.8-1.3-1.6-1.7-2.7c-.4-1-.6-2.1-.6-3.2s.2-2.2.6-3.2 1-1.9 1.8-2.7c.8-.8 1.7-1.4 2.7-1.8s2.2-.7 3.4-.7c1.3 0 2.4.2 3.4.7 1 .4 1.9 1 2.7 1.8s1.3 1.6 1.7 2.7c.4 1 .6 2.1.6 3.2s-.2 2.2-.6 3.2c-.4 1-1 1.9-1.8 2.7s-1.7 1.4-2.7 1.8-2.2.7-3.4.7zm0-2.6c.8 0 1.5-.2 2.2-.5s1.2-.7 1.7-1.2.9-1.1 1.1-1.8.4-1.4.4-2.2c0-.8-.1-1.5-.4-2.2-.3-.7-.6-1.3-1.1-1.8s-1.1-.9-1.7-1.2-1.4-.5-2.2-.5-1.5.2-2.2.5-1.2.7-1.7 1.2-.9 1.1-1.1 1.8c-.3.7-.4 1.4-.4 2.2 0 .8.1 1.5.4 2.2.3.7.6 1.3 1.1 1.8s1.1.9 1.7 1.2c.7.4 1.4.5 2.2.5zm17.7 2.6c-1.3 0-2.5-.2-3.6-.6s-2.2-1.1-3.2-2l1.7-2c.8.7 1.6 1.2 2.4 1.6.8.4 1.7.5 2.7.5.9 0 1.6-.2 2.1-.6s.8-.9.8-1.5c0-.3-.1-.6-.2-.8-.1-.2-.3-.4-.6-.6s-.6-.4-1.1-.6-1.1-.3-1.8-.5c-.9-.2-1.6-.4-2.3-.7-.7-.3-1.2-.6-1.7-.9-.5-.4-.8-.8-1-1.3s-.4-1.2-.4-1.9.1-1.3.4-1.9.7-1.1 1.1-1.5c.5-.4 1.1-.7 1.7-1 .7-.2 1.4-.3 2.2-.3 1.2 0 2.3.2 3.2.5s1.8.9 2.7 1.5l-1.5 2.2c-.7-.5-1.5-1-2.2-1.2-.7-.3-1.5-.4-2.2-.4-.8 0-1.5.2-1.9.6s-.7.8-.7 1.4c0 .3.1.6.2.8.1.2.3.5.6.6s.7.4 1.2.5c.5.2 1.1.3 1.9.5.9.2 1.6.5 2.3.7.7.3 1.2.6 1.6 1s.8.8 1 1.3.3 1.1.3 1.8c0 .8-.1 1.4-.4 2-.3.6-.7 1.1-1.2 1.5s-1.1.7-1.8 1-1.5.3-2.3.3zm8.6-3.4h3.1v3.2h-3.1V355z"/></svg>